<svg width="34" height="34" viewBox="0 0 34 34" fill="none" xmlns="http://www.w3.org/2000/svg">
<path opacity="0.4" d="M12.4746 4.55492L4.55496 12.4745C1.6662 15.3633 1.6662 18.6367 4.55496 21.5255L12.4746 29.4451C15.3558 32.3263 18.6292 32.3414 21.5255 29.4451L29.4451 21.5255C32.3339 18.6367 32.3263 15.3557 29.4451 12.4745L21.5255 4.55492C18.6368 1.66615 15.3633 1.66615 12.4746 4.55492Z" fill="#EAEAEA"/>
<path d="M20.9846 17.85H17.8995V20.9084C17.8995 21.4008 17.4968 21.8 17.0001 21.8C16.5033 21.8 16.1007 21.4008 16.1007 20.9084V17.85H13.0155C12.5522 17.8025 12.2001 17.4154 12.2001 16.9536C12.2001 16.4918 12.5522 16.1047 13.0155 16.0572H16.091V13.0084C16.139 12.5491 16.5294 12.2 16.9952 12.2C17.4611 12.2 17.8515 12.5491 17.8995 13.0084V16.0572H20.9846C21.448 16.1047 21.8001 16.4918 21.8001 16.9536C21.8001 17.4154 21.448 17.8025 20.9846 17.85Z" fill="#EAEAEA"/>
</svg>
